<?xml version="1.0" standalone="no"?>
<!DOCTYPE svg PUBLIC "-//W3C//DTD SVG 20010904//EN"
 "http://www.w3.org/TR/2001/REC-SVG-20010904/DTD/svg10.dtd">
<svg version="1.0" xmlns="http://www.w3.org/2000/svg"
 width="512.000000pt" height="512.000000pt" viewBox="0 0 512.000000 512.000000"
 preserveAspectRatio="xMidYMid meet">

<g transform="translate(0.000000,512.000000) scale(0.100000,-0.100000)"
fill="#000000" stroke="none">
<path d="M1326 5104 c-64 -20 -137 -92 -159 -159 -15 -43 -17 -107 -17 -536
l0 -488 -337 -3 -338 -3 -68 -32 c-132 -63 -224 -182 -246 -323 -14 -85 -15
-3043 -1 -3150 25 -196 183 -363 379 -400 35 -7 693 -10 1925 -10 2038 0 1932
-3 2048 56 96 48 190 162 232 279 6 19 12 196 16 470 l5 440 90 5 c83 5 90 7
102 30 10 19 12 133 11 513 -3 570 9 517 -125 517 l-83 0 0 238 c0 182 -4 252
-15 297 -42 161 -187 298 -353 334 -29 6 -109 11 -177 11 l-125 0 0 153 c-1
190 -11 270 -43 341 -53 115 -184 216 -301 232 l-46 7 0 482 c0 557 0 556 -80
635 -84 85 -11 80 -1199 79 -898 0 -1053 -3 -1095 -15z m2173 -122 c19 -9 44
-30 55 -45 21 -28 21 -36 24 -888 l2 -859 -145 0 -145 0 0 698 c0 784 3 748
-76 808 l-37 29 -726 3 c-399 2 -741 0 -759 -3 -40 -7 -101 -59 -118 -102 -11
-26 -14 -167 -14 -733 l0 -700 -145 0 -145 0 2 859 c3 852 3 860 24 888 11 15
36 36 55 45 32 17 104 18 1074 18 970 0 1042 -1 1074 -18z m-347 -389 c17 -15
18 -50 18 -710 l0 -693 -745 0 -745 0 0 692 c0 629 1 693 17 710 15 17 51 18
726 18 647 0 712 -1 729 -17z m-2002 -1099 l0 -305 -322 3 -323 3 -57 28 c-69
34 -131 101 -152 164 -9 26 -16 79 -16 118 0 90 30 156 101 219 81 73 91 74
452 75 l317 1 0 -306z m2660 276 c51 -26 114 -98 136 -156 16 -42 19 -76 19
-234 l0 -185 -132 -3 -133 -3 0 307 0 306 37 -7 c20 -4 53 -15 73 -25z m-3480
-616 c28 -20 74 -46 103 -57 l52 -22 1950 -5 1950 -5 47 -22 c66 -30 143 -105
175 -172 l28 -56 3 -252 3 -253 -619 0 c-577 0 -620 -1 -635 -18 -31 -34 -277
-508 -277 -532 1 -14 65 -129 149 -265 l147 -240 617 -3 618 -2 -3 -438 -3
-437 -29 -58 c-36 -70 -99 -130 -174 -165 l-57 -27 -1910 0 c-1885 0 -1911 0
-1964 20 -68 25 -154 101 -186 165 -13 26 -29 76 -35 111 -10 65 -15 2769 -5
2769 3 0 27 -16 55 -36z m4520 -1374 l0 -410 -687 0 -688 0 -117 194 c-65 106
-118 197 -118 201 0 4 50 102 111 216 l111 209 694 0 694 0 0 -410z"/>
<path d="M3684 2039 c-105 -30 -194 -146 -194 -253 0 -75 26 -143 74 -191 62
-61 108 -80 196 -80 64 0 83 4 128 29 78 43 126 114 138 203 24 184 -163 344
-342 292z m154 -136 c69 -51 87 -116 52 -188 -65 -134 -261 -100 -277 49 -11
91 67 172 156 163 24 -3 55 -13 69 -24z"/>
</g>
</svg>
