<?xml version="1.0" standalone="no"?>
<!DOCTYPE svg PUBLIC "-//W3C//DTD SVG 20010904//EN"
 "http://www.w3.org/TR/2001/REC-SVG-20010904/DTD/svg10.dtd">
<svg version="1.0" xmlns="http://www.w3.org/2000/svg"
 width="512.000000pt" height="512.000000pt" viewBox="0 0 512.000000 512.000000"
 preserveAspectRatio="xMidYMid meet">

<g transform="translate(0.000000,512.000000) scale(0.100000,-0.100000)"
fill="#000000" stroke="none">
<path d="M2406 4269 c-161 -23 -368 -110 -497 -208 -189 -144 -333 -361 -396
-596 -23 -89 -26 -118 -26 -265 0 -147 3 -176 26 -265 30 -111 94 -252 158
-346 55 -81 164 -195 239 -250 33 -24 60 -46 60 -49 0 -3 -40 -23 -88 -45
-387 -176 -658 -549 -712 -977 -7 -51 -10 -152 -8 -225 3 -130 3 -132 32 -162
51 -53 124 -51 178 6 22 23 23 34 30 206 5 147 11 201 31 278 46 176 132 325
262 454 130 129 279 216 452 262 91 25 116 27 368 31 290 4 387 -5 518 -49
327 -109 574 -377 658 -714 15 -57 22 -132 27 -262 l7 -183 31 -31 c43 -42 97
-49 144 -17 54 36 60 57 60 208 0 296 -70 536 -222 757 -115 169 -311 332
-500 418 -48 22 -88 42 -88 45 0 3 27 25 60 49 75 55 184 169 240 251 62 91
127 236 157 347 23 87 26 117 26 263 0 147 -3 176 -26 265 -32 119 -116 294
-186 386 -236 310 -633 474 -1015 418z m284 -240 c93 -15 204 -54 290 -102
102 -57 250 -205 307 -307 149 -267 149 -573 0 -840 -57 -102 -205 -250 -307
-307 -267 -149 -574 -149 -840 0 -102 57 -250 206 -307 307 -149 267 -149 573
0 840 57 102 205 250 307 307 171 96 367 132 550 102z"/>
<path d="M1292 3991 c-250 -138 -434 -376 -509 -659 -23 -84 -26 -117 -26
-252 0 -136 3 -167 26 -255 50 -187 146 -353 285 -491 37 -37 62 -69 55 -71
-35 -13 -169 -117 -239 -187 -172 -173 -288 -389 -339 -631 -10 -44 -20 -143
-22 -221 l-6 -140 32 -37 c54 -61 132 -60 185 3 21 26 24 41 29 167 6 152 27
252 76 371 66 160 208 335 349 430 67 46 183 107 222 117 54 14 90 62 90 121
0 53 -23 83 -97 124 -223 125 -371 346 -405 606 -22 160 19 353 104 499 54 92
192 230 285 283 84 50 113 82 113 129 0 111 -97 155 -208 94z"/>
<path d="M3672 4004 c-51 -36 -68 -121 -32 -166 11 -14 52 -44 91 -68 90 -54
207 -164 263 -249 256 -386 130 -910 -271 -1137 -35 -20 -72 -47 -83 -61 -38
-48 -18 -146 34 -172 12 -5 50 -22 86 -37 162 -66 332 -209 434 -366 109 -167
154 -315 163 -532 6 -135 7 -139 35 -172 52 -59 130 -55 183 8 23 27 25 38 25
131 0 414 -199 802 -528 1032 l-84 58 66 65 c37 35 87 92 111 125 66 86 141
247 172 362 23 87 26 120 26 255 0 135 -3 168 -26 252 -74 279 -259 520 -499
652 -71 40 -128 47 -166 20z"/>
</g>
</svg>
