<?xml version="1.0" standalone="no"?>
<!DOCTYPE svg PUBLIC "-//W3C//DTD SVG 20010904//EN"
 "http://www.w3.org/TR/2001/REC-SVG-20010904/DTD/svg10.dtd">
<svg version="1.0" xmlns="http://www.w3.org/2000/svg"
 width="512.000000pt" height="512.000000pt" viewBox="0 0 512.000000 512.000000"
 preserveAspectRatio="xMidYMid meet">

<g transform="translate(0.000000,512.000000) scale(0.100000,-0.100000)"
fill="#000000" stroke="none">
<path d="M1362 5104 c-22 -15 -22 -15 -22 -349 l0 -334 -371 -3 c-354 -3 -371
-4 -385 -22 -12 -17 -14 -276 -14 -1781 l0 -1762 416 -426 416 -427 1167 0
c1040 0 1169 2 1189 16 22 15 22 15 22 349 l0 334 371 3 c354 3 371 4 385 22
12 17 14 332 14 2192 l0 2173 -22 15 c-20 14 -187 16 -1583 16 -1396 0 -1563
-2 -1583 -16z m3068 -2194 l0 -2090 -322 2 -323 3 -3 1781 c-2 1642 -3 1783
-19 1795 -13 11 -116 15 -536 19 l-520 5 -12 50 c-33 143 -143 283 -277 351
-148 75 -364 71 -499 -8 -138 -82 -232 -203 -264 -343 l-11 -50 -92 -3 -92 -3
0 291 0 290 1485 0 1485 0 0 -2090z m-2076 1811 c139 -68 226 -197 234 -347 7
-131 -27 -223 -117 -317 -81 -84 -181 -127 -296 -127 -113 0 -203 37 -288 119
-93 89 -132 191 -125 325 5 100 46 192 114 261 94 94 177 126 315 122 85 -2
103 -6 163 -36z m-705 -481 c48 -241 277 -429 522 -430 253 -1 482 185 530
430 l12 60 473 0 474 0 0 -2090 0 -2090 -1085 0 -1085 0 0 390 c0 377 -1 391
-20 410 -19 19 -33 20 -400 20 l-380 0 0 1680 0 1680 474 0 474 -1 11 -59z
m-289 -3720 c0 -165 -1 -300 -3 -300 -1 0 -134 135 -296 300 l-293 300 296 0
296 0 0 -300z"/>
<path d="M2149 4686 c-15 -7 -25 -22 -27 -38 -2 -16 -17 -37 -38 -53 -103 -79
-100 -211 5 -282 19 -13 44 -23 57 -23 46 0 74 -18 74 -48 0 -34 -16 -52 -46
-52 -25 0 -34 10 -49 55 -5 16 -22 36 -36 44 -24 13 -29 13 -53 -2 -21 -14
-26 -25 -26 -60 0 -50 25 -94 74 -132 24 -18 36 -36 36 -51 0 -57 96 -56 111
0 5 16 24 42 44 58 47 39 65 77 65 134 0 88 -54 149 -150 169 -45 9 -60 22
-60 50 0 53 66 60 88 10 24 -55 29 -60 61 -63 44 -5 61 13 61 62 0 48 -26 95
-69 127 -17 12 -33 35 -36 50 -10 45 -48 65 -86 45z"/>
<path d="M1083 3420 c-38 -15 -43 -41 -43 -220 0 -168 0 -171 25 -195 l24 -25
409 0 c375 0 412 1 431 18 21 16 22 23 19 212 l-3 194 -25 13 c-30 15 -800 18
-837 3z m747 -215 l0 -105 -332 2 -333 3 -3 89 c-2 49 -1 95 2 103 4 10 70 13
336 13 l330 0 0 -105z"/>
<path d="M2131 3246 c-21 -25 -9 -79 19 -93 19 -10 147 -13 541 -13 484 0 518
1 539 18 25 20 30 63 10 87 -18 22 -1091 23 -1109 1z"/>
<path d="M1064 2856 c-18 -13 -19 -28 -19 -206 0 -178 1 -193 19 -206 16 -12
92 -14 436 -14 391 0 418 1 433 18 25 27 25 382 1 406 -13 14 -67 16 -433 16
-344 0 -421 -2 -437 -14z m766 -206 l0 -100 -335 0 -335 0 0 100 0 100 335 0
335 0 0 -100z"/>
<path d="M2137 2692 c-22 -24 -21 -65 1 -86 17 -15 66 -16 552 -14 l533 3 19
26 c17 23 18 30 8 50 -7 13 -18 27 -24 31 -6 4 -250 8 -542 8 -502 0 -532 -1
-547 -18z"/>
<path d="M1061 2294 c-19 -25 -21 -40 -21 -198 0 -139 3 -176 16 -194 l15 -22
428 0 c319 0 430 3 439 12 8 8 12 68 12 203 0 173 -2 194 -18 208 -17 15 -62
17 -435 17 l-416 0 -20 -26z m769 -194 l0 -100 -335 0 -335 0 0 100 0 100 335
0 335 0 0 -100z"/>
<path d="M2142 2144 c-26 -18 -30 -65 -6 -88 14 -14 77 -16 548 -16 565 0 556
-1 571 47 4 17 -1 29 -19 48 l-25 25 -523 0 c-458 0 -526 -2 -546 -16z"/>
<path d="M1083 1760 c-38 -15 -43 -41 -43 -220 0 -168 0 -171 25 -195 l24 -25
409 0 c375 0 412 1 431 18 21 16 22 23 19 212 l-3 194 -25 13 c-30 15 -800 18
-837 3z m747 -215 l0 -105 -332 2 -333 3 -3 89 c-2 49 -1 95 2 103 4 10 70 13
336 13 l330 0 0 -105z"/>
<path d="M2131 1586 c-7 -8 -11 -30 -9 -48 6 -59 -1 -58 575 -55 573 2 556 0
556 61 0 58 23 56 -568 56 -459 0 -544 -2 -554 -14z"/>
</g>
</svg>
