<?xml version="1.0" standalone="no"?>
<!DOCTYPE svg PUBLIC "-//W3C//DTD SVG 20010904//EN"
 "http://www.w3.org/TR/2001/REC-SVG-20010904/DTD/svg10.dtd">
<svg version="1.0" xmlns="http://www.w3.org/2000/svg"
 width="512.000000pt" height="512.000000pt" viewBox="0 0 512.000000 512.000000"
 preserveAspectRatio="xMidYMid meet">

<g transform="translate(0.000000,512.000000) scale(0.100000,-0.100000)"
fill="#000000" stroke="none">
<path d="M2902 5104 c-49 -34 -35 -56 175 -266 l198 -198 -782 0 c-776 0 -825
-2 -845 -33 -13 -21 -9 -53 10 -70 17 -16 88 -17 815 -17 438 0 797 -3 797 -8
0 -4 -88 -95 -195 -202 -211 -211 -224 -231 -170 -266 21 -13 30 -14 53 -5 16
7 140 123 275 259 211 212 247 252 247 277 0 26 -37 67 -258 287 -163 163
-265 258 -278 258 -11 0 -30 -7 -42 -16z"/>
<path d="M595 3820 c-131 -3 -207 -9 -221 -17 -34 -20 -72 -70 -84 -111 -14
-51 -14 -2213 0 -2264 6 -21 22 -51 37 -68 54 -65 -130 -60 2233 -60 2362 0
2179 -5 2233 60 15 17 31 47 37 68 14 52 14 2213 -1 2265 -12 45 -58 100 -96
116 -21 8 -553 12 -1983 14 -1075 1 -2045 0 -2155 -3z m151 -161 c-8 -53 -48
-130 -91 -178 -45 -50 -141 -100 -205 -108 l-50 -6 0 144 c0 200 -12 189 192
189 l161 0 -7 -41z m3441 -18 c55 -215 260 -371 490 -371 l43 0 -2 -687 -3
-688 -65 -7 c-45 -5 -89 -19 -146 -48 -140 -69 -238 -198 -265 -350 l-12 -70
-1677 0 -1677 0 -6 58 c-18 197 -206 384 -412 411 l-50 6 0 675 0 675 58 7
c87 11 197 68 267 138 68 68 127 181 137 259 l6 51 1650 -2 1650 -3 14 -54z
m517 37 c13 -18 16 -51 16 -150 l0 -128 -26 -6 c-38 -10 -148 13 -204 41 -87
44 -162 136 -190 234 l-9 31 199 0 c194 0 199 -1 214 -22z m-4154 -1943 c102
-52 185 -163 197 -266 l6 -49 -161 0 c-204 0 -192 -13 -192 199 l0 154 49 -6
c27 -3 73 -18 101 -32z m4170 -118 c0 -211 14 -197 -201 -197 l-171 0 7 43
c25 159 178 304 323 306 l42 1 0 -153z"/>
<path d="M2395 3466 c-352 -68 -635 -331 -727 -676 -32 -122 -32 -338 0 -460
85 -319 343 -576 662 -662 119 -32 347 -32 465 1 314 85 573 345 657 661 32
122 32 338 0 460 -85 316 -346 579 -657 661 -103 26 -301 34 -400 15z m370
-131 c221 -60 416 -223 515 -429 61 -127 74 -190 74 -346 0 -156 -13 -219 -74
-346 -100 -208 -294 -368 -520 -431 -91 -24 -309 -24 -400 0 -226 63 -420 223
-520 431 -52 109 -70 181 -77 306 -21 392 244 737 632 824 87 20 283 15 370
-9z"/>
<path d="M2520 3240 c-16 -16 -20 -33 -20 -83 l0 -62 -48 -17 c-66 -24 -126
-78 -159 -146 -23 -47 -28 -70 -28 -132 1 -167 104 -277 282 -299 84 -10 128
-33 160 -80 61 -91 31 -209 -67 -258 -24 -13 -59 -23 -77 -23 -38 0 -98 23
-127 48 -25 23 -56 90 -56 125 0 32 -31 67 -60 67 -11 0 -30 -10 -41 -21 -18
-18 -21 -29 -15 -72 13 -110 89 -210 188 -245 l48 -17 0 -60 c0 -74 15 -98 60
-98 45 0 60 24 60 98 l0 62 39 12 c64 19 135 82 167 148 24 48 29 71 29 133
-1 167 -104 277 -282 299 -84 10 -128 33 -160 80 -61 91 -31 209 67 259 24 12
59 22 77 22 38 0 98 -23 127 -48 25 -23 56 -90 56 -124 0 -33 31 -68 60 -68
11 0 30 10 41 21 18 18 21 29 15 72 -13 110 -89 210 -188 245 l-48 17 0 62 c0
68 -20 103 -60 103 -11 0 -29 -9 -40 -20z"/>
<path d="M870 2769 c-79 -32 -140 -123 -140 -210 0 -64 43 -146 98 -184 58
-40 158 -48 219 -16 95 48 146 153 123 250 -14 58 -66 123 -121 151 -42 22
-135 26 -179 9z m152 -138 c27 -24 33 -36 33 -71 0 -86 -106 -132 -172 -76
-24 21 -28 32 -28 76 0 44 4 55 28 76 41 35 97 33 139 -5z"/>
<path d="M4069 2760 c-55 -29 -106 -94 -119 -151 -23 -97 28 -202 123 -250 61
-32 161 -24 219 16 55 38 98 120 98 185 0 66 -43 147 -98 185 -37 25 -54 30
-115 32 -57 3 -80 -1 -108 -17z m168 -124 c24 -21 28 -32 28 -76 0 -44 -4 -55
-28 -76 -66 -56 -172 -10 -172 76 0 86 106 132 172 76z"/>
<path d="M1898 832 c-221 -220 -258 -261 -258 -287 0 -25 36 -65 246 -276 136
-136 257 -253 271 -260 34 -18 77 5 81 45 3 26 -18 51 -195 228 l-198 198 782
0 c776 0 825 2 845 33 13 21 9 53 -10 70 -17 16 -88 17 -815 17 -438 0 -797 3
-797 8 0 4 88 95 195 202 157 157 195 200 195 222 0 29 -31 58 -64 58 -13 0
-115 -95 -278 -258z"/>
</g>
</svg>
